<?xml version="1.0" encoding="UTF-8" standalone="no"?>
<!-- Created with Inkscape (http://www.inkscape.org/) -->

<svg
   xmlns:dc="http://purl.org/dc/elements/1.1/"
   xmlns:cc="http://creativecommons.org/ns#"
   xmlns:rdf="http://www.w3.org/1999/02/22-rdf-syntax-ns#"
   xmlns:svg="http://www.w3.org/2000/svg"
   xmlns="http://www.w3.org/2000/svg"
   xmlns:sodipodi="http://sodipodi.sourceforge.net/DTD/sodipodi-0.dtd"
   xmlns:inkscape="http://www.inkscape.org/namespaces/inkscape"
   width="277.45554"
   height="62.296921"
   id="svg3159"
   version="1.1"
   inkscape:version="0.48.5 r10040"
   sodipodi:docname="sciviJS_logo.svg">
  <defs
     id="defs3161" />
  <sodipodi:namedview
     id="base"
     pagecolor="#ffffff"
     bordercolor="#666666"
     borderopacity="1.0"
     inkscape:pageopacity="0.0"
     inkscape:pageshadow="2"
     inkscape:zoom="1"
     inkscape:cx="162.29919"
     inkscape:cy="-143.13725"
     inkscape:document-units="px"
     inkscape:current-layer="flowRoot4401-2-8"
     showgrid="false"
     inkscape:window-width="1381"
     inkscape:window-height="917"
     inkscape:window-x="50"
     inkscape:window-y="77"
     inkscape:window-maximized="0"
     fit-margin-top="0"
     fit-margin-left="0"
     fit-margin-right="0"
     fit-margin-bottom="-0.4" />
  <metadata
     id="metadata3164">
    <rdf:RDF>
      <cc:Work
         rdf:about="">
        <dc:format>image/svg+xml</dc:format>
        <dc:type
           rdf:resource="http://purl.org/dc/dcmitype/StillImage" />
        <dc:title></dc:title>
      </cc:Work>
    </rdf:RDF>
  </metadata>
  <g
     inkscape:label="Layer 1"
     inkscape:groupmode="layer"
     id="layer1"
     transform="translate(-212.70081,-46.928012)">
    <path
       sodipodi:type="arc"
       style="fill:#47a0a7;fill-opacity:1;fill-rule:nonzero;stroke:none"
       id="path5985-3-0"
       sodipodi:cx="269.94705"
       sodipodi:cy="708.34198"
       sodipodi:rx="40.091145"
       sodipodi:ry="40.091145"
       d="m 310.0382,708.34198 c 0,22.14173 -17.94942,40.09114 -40.09115,40.09114 -22.14173,0 -40.09114,-17.94941 -40.09114,-40.09114 0,-22.14173 17.94941,-40.09114 40.09114,-40.09114 22.14173,0 40.09115,17.94941 40.09115,40.09114 z"
       transform="matrix(0.74678073,0,0,0.74678073,41.048844,-450.02732)" />
    <path
       style="fill:#003237;fill-opacity:1;fill-rule:nonzero;stroke:none"
       d="m 226.43331,67.331479 0,20.15308 16.16984,13.395351 0,-20.153071 z"
       id="rect5899-49-2-5"
       inkscape:connector-curvature="0"
       sodipodi:nodetypes="ccccc" />
    <path
       style="fill:#ec8c47;fill-opacity:1;fill-rule:nonzero;stroke:none"
       d="m 242.80542,80.682729 16.80464,-13.72361 0,20.18727 -16.80464,13.723601 z"
       id="rect5899-4-8-7-5"
       inkscape:connector-curvature="0"
       sodipodi:nodetypes="ccccc" />
    <path
       style="fill:#00616d;fill-opacity:1;fill-rule:nonzero;stroke:none"
       d="m 259.58304,67.059539 -16.97394,13.97173 -16.2722,-13.44791 c -0.0737,0.0842 33.24614,-0.52382 33.24614,-0.52382 z"
       id="rect5899-1-6-3-0"
       inkscape:connector-curvature="0"
       sodipodi:nodetypes="cccc" />
    <path
       style="fill:none;stroke:#ffffff;stroke-width:2.80202103;stroke-linecap:butt;stroke-linejoin:miter;stroke-miterlimit:3.70000005;stroke-opacity:1;stroke-dasharray:none"
       d="m 259.46618,67.131749 -33.02379,-0.11341 17.01351,13.5315 -0.1549,21.457361"
       id="path3817-3-1-6-2-9-1"
       inkscape:connector-curvature="0"
       sodipodi:nodetypes="cccc" />
    <path
       sodipodi:type="arc"
       style="fill:#ffffff;fill-opacity:1;stroke:none"
       id="path2989-6-5-0-2-0-6"
       sodipodi:cx="143.5"
       sodipodi:cy="591.86218"
       sodipodi:rx="7.5"
       sodipodi:ry="7.5"
       d="m 151,591.86218 c 0,4.14214 -3.35786,7.5 -7.5,7.5 -4.14214,0 -7.5,-3.35786 -7.5,-7.5 0,-4.14213 3.35786,-7.5 7.5,-7.5 4.14214,0 7.5,3.35787 7.5,7.5 z"
       transform="matrix(-0.7991866,0,0,0.78495544,341.0145,-397.31798)" />
    <path
       sodipodi:type="arc"
       style="fill:#ffffff;fill-opacity:1;stroke:none"
       id="path2989-7-6-3-8-5-1-0"
       sodipodi:cx="143.5"
       sodipodi:cy="591.86218"
       sodipodi:rx="7.5"
       sodipodi:ry="7.5"
       d="m 151,591.86218 c 0,4.14214 -3.35786,7.5 -7.5,7.5 -4.14214,0 -7.5,-3.35786 -7.5,-7.5 0,-4.14213 3.35786,-7.5 7.5,-7.5 4.14214,0 7.5,3.35787 7.5,7.5 z"
       transform="matrix(-0.7991866,0,0,0.78495544,374.37307,-397.68393)" />
    <path
       sodipodi:type="arc"
       style="fill:#ffffff;fill-opacity:1;stroke:none"
       id="path2989-5-5-5-1-2-5-2"
       sodipodi:cx="143.5"
       sodipodi:cy="591.86218"
       sodipodi:rx="7.5"
       sodipodi:ry="7.5"
       d="m 151,591.86218 c 0,4.14214 -3.35786,7.5 -7.5,7.5 -4.14214,0 -7.5,-3.35786 -7.5,-7.5 0,-4.14213 3.35786,-7.5 7.5,-7.5 4.14214,0 7.5,3.35787 7.5,7.5 z"
       transform="matrix(-0.81691569,0,0,0.81691569,360.02413,-383.42396)" />
    <g
       transform="matrix(1.8042258,0,0,1.8333668,244.50269,-541.99753)"
       style="font-size:40px;font-style:normal;font-weight:normal;line-height:125%;letter-spacing:0px;word-spacing:0px;fill:#00282d;fill-opacity:1;stroke:none;font-family:Sans"
       id="flowRoot4413-6-8">
      <path
         d="m 40.37,333.48625 c -0.160014,0.29335 -0.406681,0.44002 -0.74,0.44 -0.200014,2e-5 -0.42668,-0.0733 -0.68,-0.22 -0.253346,-0.14665 -0.566679,-0.30665 -0.94,-0.48 -0.360012,-0.18665 -0.793345,-0.35332 -1.3,-0.5 -0.506677,-0.15998 -1.106677,-0.23998 -1.8,-0.24 -0.600009,2e-5 -1.140008,0.08 -1.62,0.24 -0.480007,0.14668 -0.89334,0.35335 -1.24,0.62 -0.333339,0.26668 -0.593339,0.58002 -0.78,0.94 -0.173339,0.34668 -0.260005,0.72668 -0.26,1.14 -5e-6,0.52001 0.146661,0.95335 0.44,1.3 0.306661,0.34668 0.70666,0.64668 1.2,0.9 0.493326,0.25335 1.053325,0.48001 1.68,0.68 0.626657,0.18668 1.266657,0.39335 1.92,0.62 0.666656,0.21334 1.313322,0.45334 1.94,0.72 0.626654,0.26668 1.186653,0.60001 1.68,1 0.493319,0.40001 0.886652,0.89334 1.18,1.48 0.306651,0.57334 0.459984,1.26667 0.46,2.08 -1.6e-5,0.93334 -0.166682,1.8 -0.5,2.6 -0.333348,0.78667 -0.826681,1.47334 -1.48,2.06 -0.653346,0.57333 -1.453346,1.02667 -2.4,1.36 -0.946677,0.33333 -2.040009,0.5 -3.28,0.5 -1.41334,0 -2.693339,-0.22667 -3.84,-0.68 -1.14667,-0.46667 -2.120002,-1.06 -2.92,-1.78 l 0.84,-1.36 c 0.106664,-0.17333 0.233331,-0.30666 0.38,-0.4 0.146664,-0.0933 0.33333,-0.14 0.56,-0.14 0.239997,0 0.49333,0.0933 0.76,0.28 0.266663,0.18667 0.586662,0.39334 0.96,0.62 0.386661,0.22667 0.853328,0.43334 1.4,0.62 0.54666,0.18667 1.226659,0.28 2.04,0.28 0.693324,0 1.29999,-0.0867 1.82,-0.26 0.519989,-0.18666 0.953322,-0.43333 1.3,-0.74 0.346655,-0.30666 0.599988,-0.66 0.76,-1.06 0.173321,-0.4 0.259988,-0.82666 0.26,-1.28 -1.2e-5,-0.55999 -0.153346,-1.01999 -0.46,-1.38 -0.293345,-0.37333 -0.686678,-0.68666 -1.18,-0.94 -0.493344,-0.26666 -1.06001,-0.49332 -1.7,-0.68 -0.626675,-0.19999 -1.273341,-0.40666 -1.94,-0.62 -0.65334,-0.21332 -1.300006,-0.45332 -1.94,-0.72 -0.626671,-0.27999 -1.186671,-0.62666 -1.68,-1.04 -0.493336,-0.41332 -0.893336,-0.91999 -1.2,-1.52 -0.293335,-0.61332 -0.440002,-1.35332 -0.44,-2.22 -2e-6,-0.77332 0.159998,-1.51332 0.48,-2.22 0.319997,-0.71998 0.786664,-1.34665 1.4,-1.88 0.613329,-0.54665 1.366662,-0.97998 2.26,-1.3 0.893326,-0.31998 1.913325,-0.47998 3.06,-0.48 1.333323,2e-5 2.526655,0.21335 3.58,0.64 1.066653,0.41335 1.986652,0.98669 2.76,1.72 l -0.8,1.3"
         style="font-variant:normal;font-stretch:normal;fill:#00282d;font-family:Lato;-inkscape-font-specification:Lato Semi-Light"
         id="path3270" />
      <path
         d="m 60.01375,333.74625 c -0.106683,0.14668 -0.21335,0.26002 -0.32,0.34 -0.106683,0.08 -0.25335,0.12002 -0.44,0.12 -0.200016,2e-5 -0.420016,-0.08 -0.66,-0.24 -0.240015,-0.17332 -0.540015,-0.35998 -0.9,-0.56 -0.346681,-0.19998 -0.780014,-0.37998 -1.3,-0.54 -0.506679,-0.17332 -1.133346,-0.25998 -1.88,-0.26 -1.00001,2e-5 -1.88001,0.18002 -2.64,0.54 -0.760008,0.34668 -1.400007,0.85335 -1.92,1.52 -0.506673,0.66668 -0.893339,1.47335 -1.16,2.42 -0.253339,0.94668 -0.380005,2.00668 -0.38,3.18 -5e-6,1.22668 0.139995,2.32001 0.42,3.28 0.279994,0.94667 0.673327,1.74667 1.18,2.4 0.519993,0.64 1.139992,1.13334 1.86,1.48 0.733324,0.33334 1.553323,0.5 2.46,0.5 0.866655,0 1.579987,-0.1 2.14,-0.3 0.559986,-0.21333 1.019986,-0.44666 1.38,-0.7 0.373318,-0.25333 0.679985,-0.48 0.92,-0.68 0.253317,-0.21333 0.499984,-0.32 0.74,-0.32 0.293317,0 0.519983,0.11334 0.68,0.34 l 1,1.3 c -0.440018,0.54667 -0.940017,1.01334 -1.5,1.4 -0.560016,0.38667 -1.166682,0.71333 -1.82,0.98 -0.640014,0.25333 -1.313347,0.44 -2.02,0.56 -0.706679,0.12 -1.426678,0.18 -2.16,0.18 -1.266676,0 -2.446675,-0.23333 -3.54,-0.7 -1.080006,-0.46667 -2.020005,-1.14 -2.82,-2.02 -0.800003,-0.89333 -1.426669,-1.98666 -1.88,-3.28 -0.453335,-1.29333 -0.680002,-2.76666 -0.68,-4.42 -2e-6,-1.50666 0.206665,-2.89999 0.62,-4.18 0.426664,-1.27998 1.039997,-2.37998 1.84,-3.3 0.813328,-0.93331 1.806661,-1.65998 2.98,-2.18 1.186658,-0.51998 2.546657,-0.77998 4.08,-0.78 1.426654,2e-5 2.679986,0.23335 3.76,0.7 1.093317,0.45335 2.059983,1.10002 2.9,1.94 l -0.94,1.28"
         style="font-variant:normal;font-stretch:normal;fill:#00282d;font-family:Lato;-inkscape-font-specification:Lato Semi-Light"
         id="path3272" />
      <path
         d="m 68.73625,330.14625 0,20.26 -3.56,0 0,-20.26 3.56,0 m 0.76,-6.36 c -7e-6,0.34669 -0.07334,0.67336 -0.22,0.98 -0.13334,0.29336 -0.320007,0.56003 -0.56,0.8 -0.226673,0.22669 -0.500006,0.40669 -0.82,0.54 -0.306672,0.13336 -0.633338,0.20002 -0.98,0.2 -0.346671,2e-5 -0.673337,-0.0666 -0.98,-0.2 -0.293337,-0.13331 -0.553337,-0.31331 -0.78,-0.54 -0.226669,-0.23997 -0.406669,-0.50664 -0.54,-0.8 -0.133336,-0.30664 -0.200002,-0.63331 -0.2,-0.98 -2e-6,-0.34664 0.06666,-0.67331 0.2,-0.98 0.133331,-0.31997 0.313331,-0.59331 0.54,-0.82 0.226663,-0.23997 0.486663,-0.42664 0.78,-0.56 0.306663,-0.1333 0.633329,-0.19997 0.98,-0.2 0.346662,3e-5 0.673328,0.0667 0.98,0.2 0.319994,0.13336 0.593327,0.32003 0.82,0.56 0.239993,0.22669 0.42666,0.50003 0.56,0.82 0.146659,0.30669 0.219993,0.63336 0.22,0.98"
         style="font-variant:normal;font-stretch:normal;fill:#00282d;font-family:Lato;-inkscape-font-specification:Lato Semi-Light"
         id="path3274" />
      <path
         d="m 72.225625,330.14625 2.9,0 c 0.29333,2e-5 0.533329,0.0734 0.72,0.22 0.186662,0.14669 0.313329,0.32002 0.38,0.52 l 5.14,13.04 c 0.15999,0.49334 0.29999,0.97334 0.42,1.44 0.11999,0.46667 0.233323,0.93334 0.34,1.4 0.106656,-0.46666 0.219989,-0.93333 0.34,-1.4 0.119989,-0.46666 0.266656,-0.94666 0.44,-1.44 l 5.2,-13.04 c 0.07998,-0.21331 0.213317,-0.38665 0.4,-0.52 0.18665,-0.14665 0.40665,-0.21998 0.66,-0.22 l 2.78,0 -8.26,20.26 -3.2,0 -8.26,-20.26"
         style="font-variant:normal;font-stretch:normal;fill:#00282d;font-family:Lato;-inkscape-font-specification:Lato Semi-Light"
         id="path3276" />
      <path
         d="m 98.970625,330.14625 0,20.26 -3.56,0 0,-20.26 3.56,0 m 0.76,-6.36 c -7e-6,0.34669 -0.07334,0.67336 -0.22,0.98 -0.13334,0.29336 -0.320007,0.56003 -0.56,0.8 -0.226673,0.22669 -0.500006,0.40669 -0.82,0.54 -0.306672,0.13336 -0.633338,0.20002 -0.98,0.2 -0.346671,2e-5 -0.673337,-0.0666 -0.98,-0.2 -0.293337,-0.13331 -0.553337,-0.31331 -0.78,-0.54 -0.226669,-0.23997 -0.406669,-0.50664 -0.54,-0.8 -0.133336,-0.30664 -0.200002,-0.63331 -0.2,-0.98 -2e-6,-0.34664 0.06666,-0.67331 0.2,-0.98 0.133331,-0.31997 0.313331,-0.59331 0.54,-0.82 0.226663,-0.23997 0.486663,-0.42664 0.78,-0.56 0.306663,-0.1333 0.633329,-0.19997 0.98,-0.2 0.346662,3e-5 0.673328,0.0667 0.98,0.2 0.319994,0.13336 0.593327,0.32003 0.82,0.56 0.239993,0.22669 0.42666,0.50003 0.56,0.82 0.146659,0.30669 0.219993,0.63336 0.22,0.98"
         style="font-variant:normal;font-stretch:normal;fill:#00282d;font-family:Lato;-inkscape-font-specification:Lato Semi-Light"
         id="path3278" />
    </g>
    <g
       transform="matrix(1.2193445,0,0,1.2390387,191.69795,-318.59534)"
       style="font-size:40px;font-style:normal;font-variant:normal;font-weight:bold;font-stretch:normal;line-height:125%;letter-spacing:0px;word-spacing:0px;fill:#ec8c47;fill-opacity:1;stroke:none;font-family:Liberation Mono;-inkscape-font-specification:Liberation Mono Bold"
       id="flowRoot4401-2-8">
      <path
         d="m 207.64062,308.11606 7.51954,0 0,26.32813 c -1e-5,3.63281 -0.9896,6.34765 -2.96875,8.14453 -1.96616,1.79686 -4.94792,2.6953 -8.94532,2.69531 l -1.52343,0 0,-5.68359 1.17187,0 c 1.5625,-10e-6 2.74088,-0.4362 3.53516,-1.3086 0.80729,-0.87239 1.21093,-2.15495 1.21093,-3.84765 l 0,-26.32813"
         style="fill:#ec8c47;font-family:Standard Symbols L;-inkscape-font-specification:Standard Symbols L Bold"
         id="path3281" />
      <path
         d="m 242.85547,309.03403 0,6.17187 c -1.60159,-0.71612 -3.16408,-1.25648 -4.6875,-1.62109 -1.52346,-0.36456 -2.96226,-0.54685 -4.31641,-0.54687 -1.79689,2e-5 -3.12501,0.24742 -3.98437,0.74218 -0.85939,0.49482 -1.28907,1.26305 -1.28907,2.30469 0,0.78127 0.28645,1.39325 0.85938,1.83594 0.58593,0.4297 1.64061,0.8008 3.16406,1.11328 l 3.20313,0.64453 c 3.24216,0.65106 5.54685,1.64064 6.91406,2.96875 1.36716,1.32814 2.05076,3.21616 2.05078,5.66406 -2e-5,3.21615 -0.95705,5.61199 -2.87109,7.1875 -1.90107,1.5625 -4.81122,2.34375 -8.73047,2.34375 -1.84897,0 -3.70444,-0.17578 -5.56641,-0.52734 -1.86198,-0.35156 -3.72396,-0.8724 -5.58594,-1.5625 l 0,-6.34766 c 1.86198,0.98959 3.65885,1.73829 5.39063,2.2461 1.74478,0.49479 3.42447,0.74219 5.03906,0.74218 1.64061,1e-5 2.89712,-0.27343 3.76953,-0.82031 0.87238,-0.54687 1.30858,-1.32812 1.3086,-2.34375 -2e-5,-0.91145 -0.2995,-1.61457 -0.89844,-2.10937 -0.58595,-0.49478 -1.76434,-0.93749 -3.53516,-1.32813 l -2.91015,-0.64453 c -2.91668,-0.62499 -5.05209,-1.62108 -6.40625,-2.98828 -1.34115,-1.36717 -2.01172,-3.20962 -2.01172,-5.52734 0,-2.90363 0.93749,-5.1367 2.8125,-6.69922 1.87499,-1.56247 4.5703,-2.34372 8.08594,-2.34375 1.60154,3e-5 3.24868,0.12372 4.9414,0.37109 1.69269,0.2344 3.44399,0.59248 5.25391,1.07422"
         style="fill:#ec8c47;font-family:Standard Symbols L;-inkscape-font-specification:Standard Symbols L Bold"
         id="path3283" />
    </g>
    <flowRoot
       xml:space="preserve"
       id="flowRoot3261"
       style="fill:black;stroke:none;stroke-opacity:1;stroke-width:1px;stroke-linejoin:miter;stroke-linecap:butt;fill-opacity:1;font-family:Sans;font-style:normal;font-weight:normal;font-size:40px;line-height:125%;letter-spacing:0px;word-spacing:0px"><flowRegion
         id="flowRegion3263"><rect
           id="rect3265"
           width="354"
           height="183"
           x="-41"
           y="-42.703079" /></flowRegion><flowPara
         id="flowPara3267"></flowPara></flowRoot>  </g>
</svg>
