<?xml version="1.0" encoding="UTF-8" standalone="no"?>
<!-- Created with Inkscape (http://www.inkscape.org/) -->

<svg
   xmlns:dc="http://purl.org/dc/elements/1.1/"
   xmlns:cc="http://creativecommons.org/ns#"
   xmlns:rdf="http://www.w3.org/1999/02/22-rdf-syntax-ns#"
   xmlns:svg="http://www.w3.org/2000/svg"
   xmlns="http://www.w3.org/2000/svg"
   xmlns:sodipodi="http://sodipodi.sourceforge.net/DTD/sodipodi-0.dtd"
   xmlns:inkscape="http://www.inkscape.org/namespaces/inkscape"
   width="277.45554"
   height="62.296921"
   id="svg3159"
   version="1.1"
   inkscape:version="0.48.5 r10040"
   sodipodi:docname="New document 3">
  <defs
     id="defs3161" />
  <sodipodi:namedview
     id="base"
     pagecolor="#ffffff"
     bordercolor="#666666"
     borderopacity="1.0"
     inkscape:pageopacity="0.0"
     inkscape:pageshadow="2"
     inkscape:zoom="1"
     inkscape:cx="162.29919"
     inkscape:cy="-143.13725"
     inkscape:document-units="px"
     inkscape:current-layer="layer1"
     showgrid="false"
     inkscape:window-width="1381"
     inkscape:window-height="917"
     inkscape:window-x="50"
     inkscape:window-y="77"
     inkscape:window-maximized="0"
     fit-margin-top="0"
     fit-margin-left="0"
     fit-margin-right="0"
     fit-margin-bottom="-0.4" />
  <metadata
     id="metadata3164">
    <rdf:RDF>
      <cc:Work
         rdf:about="">
        <dc:format>image/svg+xml</dc:format>
        <dc:type
           rdf:resource="http://purl.org/dc/dcmitype/StillImage" />
        <dc:title></dc:title>
      </cc:Work>
    </rdf:RDF>
  </metadata>
  <g
     inkscape:label="Layer 1"
     inkscape:groupmode="layer"
     id="layer1"
     transform="translate(-212.70081,-46.928012)">
    <path
       sodipodi:type="arc"
       style="fill:#47a0a7;fill-opacity:1;fill-rule:nonzero;stroke:none"
       id="path5985-3-0"
       sodipodi:cx="269.94705"
       sodipodi:cy="708.34198"
       sodipodi:rx="40.091145"
       sodipodi:ry="40.091145"
       d="m 310.0382,708.34198 c 0,22.14173 -17.94942,40.09114 -40.09115,40.09114 -22.14173,0 -40.09114,-17.94941 -40.09114,-40.09114 0,-22.14173 17.94941,-40.09114 40.09114,-40.09114 22.14173,0 40.09115,17.94941 40.09115,40.09114 z"
       transform="matrix(0.74678073,0,0,0.74678073,41.048844,-450.02732)" />
    <path
       style="fill:#003237;fill-opacity:1;fill-rule:nonzero;stroke:none"
       d="m 226.43331,67.331479 0,20.15308 16.16984,13.395351 0,-20.153071 z"
       id="rect5899-49-2-5"
       inkscape:connector-curvature="0"
       sodipodi:nodetypes="ccccc" />
    <path
       style="fill:#ec8c47;fill-opacity:1;fill-rule:nonzero;stroke:none"
       d="m 242.80542,80.682729 16.80464,-13.72361 0,20.18727 -16.80464,13.723601 z"
       id="rect5899-4-8-7-5"
       inkscape:connector-curvature="0"
       sodipodi:nodetypes="ccccc" />
    <path
       style="fill:#00616d;fill-opacity:1;fill-rule:nonzero;stroke:none"
       d="m 259.58304,67.059539 -16.97394,13.97173 -16.2722,-13.44791 c -0.0737,0.0842 33.24614,-0.52382 33.24614,-0.52382 z"
       id="rect5899-1-6-3-0"
       inkscape:connector-curvature="0"
       sodipodi:nodetypes="cccc" />
    <path
       style="fill:none;stroke:#ffffff;stroke-width:2.80202103;stroke-linecap:butt;stroke-linejoin:miter;stroke-miterlimit:3.70000005;stroke-opacity:1;stroke-dasharray:none"
       d="m 259.46618,67.131749 -33.02379,-0.11341 17.01351,13.5315 -0.1549,21.457361"
       id="path3817-3-1-6-2-9-1"
       inkscape:connector-curvature="0"
       sodipodi:nodetypes="cccc" />
    <path
       sodipodi:type="arc"
       style="fill:#ffffff;fill-opacity:1;stroke:none"
       id="path2989-6-5-0-2-0-6"
       sodipodi:cx="143.5"
       sodipodi:cy="591.86218"
       sodipodi:rx="7.5"
       sodipodi:ry="7.5"
       d="m 151,591.86218 c 0,4.14214 -3.35786,7.5 -7.5,7.5 -4.14214,0 -7.5,-3.35786 -7.5,-7.5 0,-4.14213 3.35786,-7.5 7.5,-7.5 4.14214,0 7.5,3.35787 7.5,7.5 z"
       transform="matrix(-0.7991866,0,0,0.78495544,341.0145,-397.31798)" />
    <path
       sodipodi:type="arc"
       style="fill:#ffffff;fill-opacity:1;stroke:none"
       id="path2989-7-6-3-8-5-1-0"
       sodipodi:cx="143.5"
       sodipodi:cy="591.86218"
       sodipodi:rx="7.5"
       sodipodi:ry="7.5"
       d="m 151,591.86218 c 0,4.14214 -3.35786,7.5 -7.5,7.5 -4.14214,0 -7.5,-3.35786 -7.5,-7.5 0,-4.14213 3.35786,-7.5 7.5,-7.5 4.14214,0 7.5,3.35787 7.5,7.5 z"
       transform="matrix(-0.7991866,0,0,0.78495544,374.37307,-397.68393)" />
    <path
       sodipodi:type="arc"
       style="fill:#ffffff;fill-opacity:1;stroke:none"
       id="path2989-5-5-5-1-2-5-2"
       sodipodi:cx="143.5"
       sodipodi:cy="591.86218"
       sodipodi:rx="7.5"
       sodipodi:ry="7.5"
       d="m 151,591.86218 c 0,4.14214 -3.35786,7.5 -7.5,7.5 -4.14214,0 -7.5,-3.35786 -7.5,-7.5 0,-4.14213 3.35786,-7.5 7.5,-7.5 4.14214,0 7.5,3.35787 7.5,7.5 z"
       transform="matrix(-0.81691569,0,0,0.81691569,360.02413,-383.42396)" />
    <flowRoot
       xml:space="preserve"
       id="flowRoot4413-6-8"
       style="font-size:40px;font-style:normal;font-weight:normal;line-height:125%;letter-spacing:0px;word-spacing:0px;fill:#00282d;fill-opacity:1;stroke:none;font-family:Sans"
       transform="matrix(1.8042258,0,0,1.8333668,244.50269,-541.99753)"><flowRegion
         id="flowRegion4415-9-8"><rect
           id="rect4417-4-4"
           width="93.069305"
           height="67.821785"
           x="25.742575"
           y="309.29288"
           style="fill:#00282d;fill-opacity:1" /></flowRegion><flowPara
         id="flowPara4419-8-9"
         style="font-style:normal;font-variant:normal;font-stretch:normal;fill:#00282d;fill-opacity:1;font-family:Lato;-inkscape-font-specification:Lato Semi-Light">scivi</flowPara></flowRoot>    <flowRoot
       xml:space="preserve"
       id="flowRoot4401-2-8"
       style="font-size:40px;font-style:normal;font-variant:normal;font-weight:bold;font-stretch:normal;line-height:125%;letter-spacing:0px;word-spacing:0px;fill:#ec8c47;fill-opacity:1;stroke:none;font-family:Liberation Mono;-inkscape-font-specification:Liberation Mono Bold"
       transform="matrix(1.2193445,0,0,1.2390387,191.69795,-318.59534)"><flowRegion
         id="flowRegion4403-8-3"><rect
           id="rect4405-2-4"
           width="226.73267"
           height="56.930695"
           x="203.9604"
           y="297.41168"
           style="font-style:normal;font-variant:normal;font-weight:bold;font-stretch:normal;fill:#ec8c47;fill-opacity:1;font-family:Liberation Mono;-inkscape-font-specification:Liberation Mono Bold" /></flowRegion><flowPara
         id="flowPara4407-7-4"
         style="font-style:normal;font-variant:normal;font-weight:bold;font-stretch:normal;fill:#ec8c47;fill-opacity:1;font-family:Standard Symbols L;-inkscape-font-specification:Standard Symbols L Bold">JS</flowPara></flowRoot>  </g>
</svg>
